<svg width="21" height="20" viewBox="0 0 21 20" fill="none" xmlns="http://www.w3.org/2000/svg">
<path d="M9.83342 6.50001H12.1667C12.1667 6.19059 12.0438 5.89384 11.825 5.67505C11.6062 5.45625 11.3095 5.33334 11.0001 5.33334C10.6907 5.33334 10.3939 5.45625 10.1751 5.67505C9.95633 5.89384 9.83342 6.19059 9.83342 6.50001ZM8.66675 6.50001C8.66675 5.88117 8.91258 5.28767 9.35017 4.85009C9.78775 4.4125 10.3812 4.16667 11.0001 4.16667C11.6189 4.16667 12.2124 4.4125 12.65 4.85009C13.0876 5.28767 13.3334 5.88117 13.3334 6.50001H16.2501C16.4048 6.50001 16.5532 6.56146 16.6626 6.67086C16.772 6.78026 16.8334 6.92863 16.8334 7.08334C16.8334 7.23805 16.772 7.38642 16.6626 7.49582C16.5532 7.60521 16.4048 7.66667 16.2501 7.66667H15.7356L15.2187 13.6983C15.1691 14.2808 14.9026 14.8233 14.472 15.2187C14.0414 15.6141 13.4781 15.8334 12.8936 15.8333H9.10658C8.52203 15.8334 7.95874 15.6141 7.52817 15.2187C7.09759 14.8233 6.8311 14.2808 6.78141 13.6983L6.26458 7.66667H5.75008C5.59537 7.66667 5.447 7.60521 5.3376 7.49582C5.22821 7.38642 5.16675 7.23805 5.16675 7.08334C5.16675 6.92863 5.22821 6.78026 5.3376 6.67086C5.447 6.56146 5.59537 6.50001 5.75008 6.50001H8.66675ZM12.7501 10C12.7501 9.8453 12.6886 9.69692 12.5792 9.58753C12.4698 9.47813 12.3215 9.41667 12.1667 9.41667C12.012 9.41667 11.8637 9.47813 11.7543 9.58753C11.6449 9.69692 11.5834 9.8453 11.5834 10V12.3333C11.5834 12.488 11.6449 12.6364 11.7543 12.7458C11.8637 12.8552 12.012 12.9167 12.1667 12.9167C12.3215 12.9167 12.4698 12.8552 12.5792 12.7458C12.6886 12.6364 12.7501 12.488 12.7501 12.3333V10ZM9.83342 9.41667C9.98812 9.41667 10.1365 9.47813 10.2459 9.58753C10.3553 9.69692 10.4167 9.8453 10.4167 10V12.3333C10.4167 12.488 10.3553 12.6364 10.2459 12.7458C10.1365 12.8552 9.98812 12.9167 9.83342 12.9167C9.67871 12.9167 9.53033 12.8552 9.42094 12.7458C9.31154 12.6364 9.25008 12.488 9.25008 12.3333V10C9.25008 9.8453 9.31154 9.69692 9.42094 9.58753C9.53033 9.47813 9.67871 9.41667 9.83342 9.41667ZM7.94341 13.5992C7.96827 13.8905 8.1016 14.1619 8.31701 14.3596C8.53242 14.5572 8.8142 14.6669 9.10658 14.6667H12.8936C13.1858 14.6666 13.4673 14.5568 13.6824 14.3592C13.8976 14.1615 14.0307 13.8903 14.0556 13.5992L14.5642 7.66667H7.43591L7.94341 13.5992Z" fill="#E71D36"/>
</svg>
