<svg width="5" height="20" viewBox="0 0 5 20" fill="none" xmlns="http://www.w3.org/2000/svg">
<path fill-rule="evenodd" clip-rule="evenodd" d="M4.99997 2.54902C4.99997 3.69945 4.03397 4.63304 2.84178 4.63304C1.6496 4.63304 0.683594 3.69945 0.683594 2.54902C0.683594 1.39773 1.6496 0.465 2.84178 0.465C4.03397 0.465 4.99997 1.39773 4.99997 2.54902ZM4.99997 9.93C4.99997 11.0735 4.03397 12.0003 2.84178 12.0003C1.6496 12.0003 0.683594 11.0735 0.683594 9.93C0.683594 8.78646 1.6496 7.85975 2.84178 7.85975C4.03397 7.85975 4.99997 8.78646 4.99997 9.93ZM4.99997 17.311C4.99997 18.4623 4.03397 19.395 2.84178 19.395C1.6496 19.395 0.683594 18.4623 0.683594 17.311C0.683594 16.1606 1.6496 15.227 2.84178 15.227C4.03397 15.227 4.99997 16.1606 4.99997 17.311Z" fill="#9197B3"/>
</svg>
