<svg width="25" height="24" viewBox="0 0 25 24" fill="none" xmlns="http://www.w3.org/2000/svg">
<path d="M6.70496 8.00016H7.95496M7.95496 8.00016H17.955M7.95496 8.00016V17.3335C7.95496 17.6871 8.08665 18.0263 8.32107 18.2763C8.55549 18.5264 8.87344 18.6668 9.20496 18.6668H15.455C15.7865 18.6668 16.1044 18.5264 16.3388 18.2763C16.5733 18.0263 16.705 17.6871 16.705 17.3335V8.00016H7.95496ZM9.82996 8.00016V6.66683C9.82996 6.31321 9.96165 5.97407 10.1961 5.72402C10.4305 5.47397 10.7484 5.3335 11.08 5.3335H13.58C13.9115 5.3335 14.2294 5.47397 14.4638 5.72402C14.6983 5.97407 14.83 6.31321 14.83 6.66683V8.00016M11.08 11.3335V15.3335M13.58 11.3335V15.3335" stroke="#9197B3" stroke-width="1.2" stroke-linecap="round" stroke-linejoin="round"/>
</svg>
