<svg width="25" height="24" viewBox="0 0 25 24" fill="none" xmlns="http://www.w3.org/2000/svg">
<g clip-path="url(#clip0_182_5349)">
<path d="M15.455 5.94187C15.6191 5.76509 15.814 5.62486 16.0285 5.52919C16.2429 5.43352 16.4728 5.38428 16.705 5.38428C16.9371 5.38428 17.167 5.43352 17.3815 5.52919C17.5959 5.62486 17.7908 5.76509 17.955 5.94187C18.1191 6.11865 18.2493 6.32852 18.3382 6.55949C18.427 6.79047 18.4727 7.03802 18.4727 7.28803C18.4727 7.53803 18.427 7.78559 18.3382 8.01656C18.2493 8.24753 18.1191 8.4574 17.955 8.63418L9.51746 17.7207L6.07996 18.7303L7.01746 15.0284L15.455 5.94187Z" stroke="#9197B3" stroke-width="1.2" stroke-linecap="round" stroke-linejoin="round"/>
</g>
<defs>
<clipPath id="clip0_182_5349">
<rect width="15" height="16.1538" fill="white" transform="translate(4.82996 3.92285)"/>
</clipPath>
</defs>
</svg>
