<svg width="50" height="50" viewBox="0 0 50 50" fill="none" xmlns="http://www.w3.org/2000/svg">
<rect width="50" height="50" rx="25" fill="#0067FF" fill-opacity="0.06"/>
<path d="M25 36.85C27.425 36.1 29.45 34.619 31.075 32.407C32.7 30.195 33.65 27.726 33.925 25H25V13.216L16.606 16.3315C16.413 16.4085 16.264 16.524 16.159 16.678C16.053 16.832 16 17.005 16 17.197V24.2965C16 24.4905 16.025 24.725 16.075 25H25V36.85ZM25 38.263C24.864 38.263 24.7205 38.2505 24.5695 38.2255C24.4185 38.2005 24.2785 38.163 24.1495 38.113C21.1965 36.988 18.85 35.08 17.11 32.389C15.37 29.698 14.5 26.785 14.5 23.65V17.2255C14.5 16.7155 14.6475 16.254 14.9425 15.841C15.2375 15.428 15.615 15.128 16.075 14.941L24.1525 11.941C24.4445 11.835 24.727 11.782 25 11.782C25.273 11.782 25.556 11.835 25.849 11.941L33.925 14.941C34.385 15.128 34.7625 15.428 35.0575 15.841C35.3525 16.254 35.5 16.7155 35.5 17.2255V23.65C35.5 26.785 34.63 29.698 32.89 32.389C31.15 35.08 28.8035 36.988 25.8505 38.113C25.7205 38.163 25.5805 38.2005 25.4305 38.2255C25.2805 38.2505 25.137 38.263 25 38.263Z" fill="#0067FF"/>
</svg>
